<svg width="25" height="34" viewBox="0 0 25 34" fill="none" xmlns="http://www.w3.org/2000/svg">
<path d="M0 14.426C0 29.675 0.0121323 29.8081 0.558085 30.8852C0.970582 31.7082 1.5772 32.3012 2.40219 32.7006L3.21505 33.1H11.7683H20.3216L21.1102 32.7611C22.8693 32.0229 23.9976 30.8731 24.5315 29.3119L24.8105 28.5011L24.8469 14.3534C24.859 6.57157 24.8348 0.15731 24.7862 0.108898C24.7377 0.0604897 23.5488 0.689812 22.1414 1.51278L19.5936 3.02557H12.8845H6.18746L3.15439 1.51278C1.49227 0.677711 0.0970582 -2.28882e-05 0.0606614 -2.28882e-05C0.0242646 -2.28882e-05 0 6.49895 0 14.426ZM8.91723 7.38243C9.69369 7.7576 10.543 8.60477 10.9191 9.37932C11.1738 9.88762 11.2224 10.1539 11.2224 11.1342C11.2224 12.1629 11.186 12.3565 10.8705 12.9858C10.4338 13.8451 9.66943 14.5591 8.75951 14.9827C8.18929 15.249 7.88598 15.2974 7.09738 15.2974C5.84776 15.2974 4.87718 14.8859 4.05218 14.0145C3.21505 13.119 2.97241 12.5017 2.97241 11.1947C2.97241 10.2507 3.02094 10.0086 3.29998 9.43983C3.74887 8.54425 4.64666 7.68499 5.53232 7.30981C6.49077 6.91043 7.99517 6.93464 8.91723 7.38243ZM19.6786 7.40663C20.5157 7.79391 21.2436 8.52005 21.6804 9.41563C21.9716 10.0086 22.0201 10.2507 22.0201 11.1342C22.0201 12.0297 21.9716 12.2597 21.6683 12.8769C21.0131 14.2082 19.9576 14.9948 18.4653 15.2732C17.8587 15.3821 17.5918 15.37 16.9003 15.2006C14.947 14.7165 13.7095 13.2158 13.6731 11.2552C13.6488 9.7666 14.401 8.39903 15.6506 7.64868C16.5606 7.10407 16.8881 7.01936 18.0164 7.05566C18.7686 7.07987 19.1447 7.15248 19.6786 7.40663ZM2.65697 14.1598C3.10586 14.8738 3.10586 14.9464 2.79042 15.1643C2.54778 15.3337 2.58418 15.4184 3.91873 18.2867L5.30181 21.2396H12.3749H19.448L20.8311 18.2988L22.2021 15.3458L21.9352 15.1279C21.6683 14.9101 21.6683 14.9101 21.8988 14.4865C22.0201 14.2566 22.2142 13.9298 22.3355 13.7846L22.5418 13.5062L23.3425 14.0266C23.7793 14.3171 24.119 14.5833 24.1068 14.6318C24.0826 14.6681 23.2212 16.435 22.2021 18.5408L20.3458 22.3894H17.1429C15.3959 22.3894 13.9521 22.4136 13.9521 22.4499C13.9521 22.4862 14.583 23.8538 15.3595 25.4755C16.694 28.2711 16.7911 28.4285 17.155 28.5132C19.0962 28.9126 19.5936 31.6477 17.8951 32.6159C17.1793 33.0274 16.7183 33.0879 15.9661 32.87C15.5172 32.7369 15.2017 32.5433 14.947 32.2528C14.2797 31.5025 14.2554 30.2196 14.9106 29.4088L15.2745 28.9489L13.7823 25.7538L12.29 22.5709L8.31061 22.5104L4.34336 22.4499L2.7055 19.0007C1.80771 17.1006 0.982715 15.3216 0.84926 15.0432L0.630879 14.5349L1.37095 14.0508C1.78345 13.7846 2.15955 13.5667 2.20807 13.5667C2.24447 13.5546 2.45072 13.833 2.65697 14.1598ZM13.5275 16.6044C13.3698 16.9554 13.0543 17.6452 12.836 18.1293L12.4113 19.0128L11.7804 17.6452C11.4286 16.8949 11.1132 16.2051 11.0768 16.1203C11.0282 16.0114 11.3437 15.9751 12.4113 15.9751H13.8187L13.5275 16.6044Z" fill="white"/>
<path d="M6.16311 9.93607C5.64143 10.2023 5.2168 10.9164 5.2168 11.4973C5.2168 12.0298 5.64143 12.8043 6.10245 13.0706C6.69693 13.4337 7.64325 13.3974 8.12854 12.998C8.33479 12.8164 8.57744 12.526 8.6745 12.3323C9.11126 11.4973 8.69876 10.3476 7.82524 9.92397C7.20649 9.62141 6.74546 9.62141 6.16311 9.93607Z" fill="white"/>
<path d="M16.9852 9.89969C15.311 10.7348 15.9297 13.3126 17.8102 13.3126C18.8779 13.3126 19.5815 12.6106 19.5815 11.5456C19.5815 10.178 18.1984 9.28247 16.9852 9.89969Z" fill="white"/>
<path d="M16.2693 29.9654C15.42 30.3285 15.7476 31.5872 16.6939 31.5872C17.2034 31.5872 17.5917 31.2362 17.5917 30.7642C17.5917 30.0381 16.9851 29.6629 16.2693 29.9654Z" fill="white"/>
</svg>
