<svg width="84" height="30" viewBox="0 0 84 30" fill="none" xmlns="http://www.w3.org/2000/svg">
<path d="M5.30294 24.2502C2.74553 24.2502 0.699951 22.1872 0.699951 19.6844V9.63906C0.699951 7.13626 2.74553 5.07325 5.30294 5.07325C7.82596 5.07325 9.87154 7.13626 9.87154 9.63906V19.6844C9.87154 22.1872 7.82596 24.2502 5.30294 24.2502ZM5.30294 8.32C4.55269 8.32 3.97323 8.92893 3.97323 9.63906V19.6844C3.97323 20.4283 4.55269 21.0031 5.30266 21.0031C6.01881 21.0031 6.63266 20.4283 6.63266 19.6844V9.63906C6.63266 8.92893 6.01881 8.32 5.30294 8.32ZM23.1586 5.07325H26.4657V20.1238C26.467 20.8822 26.2555 21.6259 25.8548 22.2718C25.4542 22.9176 24.8802 23.4401 24.1971 23.7806C23.5141 24.1212 22.7489 24.2664 21.9874 24.2C21.2259 24.1336 20.498 23.8582 19.8853 23.4047C19.2726 23.8582 18.5447 24.1336 17.7832 24.2C17.0217 24.2664 16.2565 24.1212 15.5735 23.7806C14.8904 23.4401 14.3164 22.9176 13.9158 22.2718C13.5151 21.6259 13.3036 20.8822 13.3049 20.1238V5.20857H16.5782V20.1238C16.577 20.2352 16.5983 20.3457 16.6407 20.4488C16.6831 20.5519 16.7459 20.6456 16.8252 20.7243C16.9046 20.8031 16.999 20.8654 17.1029 20.9075C17.2069 20.9496 17.3182 20.9707 17.4305 20.9696C17.8738 20.9696 18.2487 20.5975 18.2487 20.1238V5.20857H21.5219V20.1238C21.5219 20.5975 21.8971 20.9696 22.3401 20.9696C22.8176 20.9696 23.1586 20.5975 23.1586 20.1238V5.07325ZM35.3546 20.9696V24.1822H34.3656C31.9108 24.1822 29.8991 22.1869 29.8991 19.7517V0.0676586H33.1382V19.7517C33.1382 20.3945 33.6836 20.9696 34.3656 20.9696H35.3546ZM42.0269 24.149V30H38.7877V5.07325H43.8337C44.367 5.07162 44.8954 5.17461 45.3884 5.3763C45.8814 5.57799 46.3294 5.87439 46.7065 6.24845C47.0836 6.62251 47.3824 7.06685 47.5858 7.5559C47.7891 8.04495 47.893 8.56906 47.8914 9.09808V20.1241C47.8914 22.3225 46.0842 24.1487 43.8337 24.1487L42.0269 24.149ZM42.0269 8.28646V20.9358H43.8337C44.3112 20.9358 44.6522 20.5636 44.6522 20.1238V9.09779C44.6522 8.6583 44.3112 8.28646 43.8337 8.28646H42.0269ZM55.9275 24.2502C53.3704 24.2502 51.3245 22.1872 51.3245 19.6844V9.63906C51.3245 7.13626 53.3704 5.07325 55.9275 5.07325C58.4505 5.07325 60.4964 7.13626 60.4964 9.63906V19.6844C60.4964 22.1872 58.4505 24.2502 55.9272 24.2502M55.9272 8.32C55.1772 8.32 54.5978 8.92893 54.5978 9.63906V19.6844C54.5978 20.4283 55.1772 21.0031 55.9272 21.0031C56.6433 21.0031 57.2572 20.4283 57.2572 19.6844V9.63906C57.2572 8.92893 56.6433 8.32029 55.9275 8.32029M68.4984 24.1828C67.2866 24.1826 66.1246 23.705 65.2678 22.855C64.4111 22.005 63.9298 20.8522 63.9298 19.6502V17.0124H67.1686V19.6505C67.1686 20.3945 67.7825 20.9693 68.4984 20.9693C69.2486 20.9693 69.8281 20.3945 69.8281 19.6505V18.1962L63.9295 12.1421V9.4702C63.9295 6.9674 65.9753 4.9041 68.4986 4.9041C71.0219 4.9041 73.067 6.96712 73.067 9.4702V11.567H69.8278V9.4702C69.8278 8.72596 69.2483 8.15114 68.4984 8.15114C67.7822 8.15114 67.1684 8.72596 67.1684 9.46991V10.8231L73.067 16.9109V19.6505C73.067 22.1533 71.0211 24.1825 68.4981 24.1825M84.0012 8.32H81.6828V19.1093C81.6828 20.1241 82.5354 20.9355 83.5579 20.9355V24.1825C80.7282 24.1825 78.4436 21.9165 78.4436 19.1093V8.32H76.1252V5.07325H78.4436V0H81.6828V5.07325H84.0012V8.32Z" fill="white"/>
</svg>
