<svg width="31" height="31" viewBox="0 0 31 31" fill="none" xmlns="http://www.w3.org/2000/svg">
<path d="M21.3125 11.625C21.3125 13.1666 20.7001 14.645 19.6101 15.7351C18.52 16.8251 17.0416 17.4375 15.5 17.4375C13.9584 17.4375 12.48 16.8251 11.3899 15.7351C10.2999 14.645 9.6875 13.1666 9.6875 11.625C9.6875 10.0834 10.2999 8.605 11.3899 7.51494C12.48 6.42489 13.9584 5.8125 15.5 5.8125C17.0416 5.8125 18.52 6.42489 19.6101 7.51494C20.7001 8.605 21.3125 10.0834 21.3125 11.625Z" fill="#FAFAFC"/>
<path fill-rule="evenodd" clip-rule="evenodd" d="M0 15.5C0 11.3891 1.63303 7.44666 4.53984 4.53984C7.44666 1.63303 11.3891 0 15.5 0C19.6109 0 23.5533 1.63303 26.4602 4.53984C29.367 7.44666 31 11.3891 31 15.5C31 19.6109 29.367 23.5533 26.4602 26.4602C23.5533 29.367 19.6109 31 15.5 31C11.3891 31 7.44666 29.367 4.53984 26.4602C1.63303 23.5533 0 19.6109 0 15.5ZM15.5 1.9375C12.9459 1.93764 10.4438 2.65895 8.28166 4.01843C6.11948 5.3779 4.38511 7.32028 3.27818 9.622C2.17125 11.9237 1.73675 14.4912 2.02468 17.029C2.31262 19.5668 3.31129 21.9717 4.90575 23.9669C6.28137 21.7504 9.30969 19.375 15.5 19.375C21.6903 19.375 24.7167 21.7484 26.0943 23.9669C27.6887 21.9717 28.6874 19.5668 28.9753 17.029C29.2633 14.4912 28.8287 11.9237 27.7218 9.622C26.6149 7.32028 24.8805 5.3779 22.7183 4.01843C20.5562 2.65895 18.0541 1.93764 15.5 1.9375Z" fill="#FAFAFC"/>
</svg>
