<svg width="35mm" height="178.567" viewBox="0 0 35 47.246" xml:space="preserve" xmlns="http://www.w3.org/2000/svg">
  <defs>
    <clipPath clipPathUnits="userSpaceOnUse" id="a">
      <path style="display:inline;fill:#141718;fill-opacity:1;fill-rule:nonzero;stroke:none;stroke-width:.151573;stroke-dasharray:none;stroke-opacity:1" class="powerclip" d="M95-5h142.971v188.567H95.001Zm19.248 91.93a6.649 6.614 0 0 0-6.65 6.613 6.649 6.614 0 0 0 4.355 6.19c3.912 14.85 26.478 26.242 52.142 26.937.151.786.202 1.593.126 2.38a8.5 8.5 0 0 1-1.514 4.054c-1 1.406-2.649 2.7-4.49 4.236-1.855 1.548-3.976 3.43-5.222 6.23-1.437 3.229-1.263 6.89.235 9.98 1.487 3.068 4.145 5.36 7.237 6.563 3.074 1.196 6.423 1.278 9.512.465 3.076-.81 5.813-2.47 8.014-4.605 3.803-3.688 5.703-8.16 8.185-11.399 1.236-1.612 2.622-2.964 4.14-3.808 1.485-.826 3.201-1.16 4.585-.85 1.37.308 2.695 1.373 3.294 2.637.416.876.527 1.957.35 2.955-2.708 1.034-5.083 2.963-6.675 5.363-2.268 3.366-2.356 7.84-.837 11.52 1.475 3.588 5.082 5.947 8.847 6.556 4.068.815 8.505-.53 11.336-3.568 3.375-3.451 4.332-8.948 2.358-13.338-1.59-3.752-5.21-6.513-9.226-7.174a10.4 10.4 0 0 0-.995-4.736 10.51 10.51 0 0 0-7.198-5.742c-3.07-.69-6.113.032-8.614 1.423-2.467 1.372-4.36 3.33-5.892 5.33-3.054 3.986-4.9 8.124-7.635 10.778-1.564 1.517-3.484 2.653-5.492 3.182-1.994.524-4.156.444-5.98-.266-1.805-.702-3.38-2.097-4.178-3.742-.785-1.621-.855-3.672-.163-5.227.626-1.406 1.993-2.778 3.68-4.185 1.701-1.42 3.8-2.962 5.47-5.309a14.03 14.03 0 0 0 2.538-6.783c.095-.988.079-1.98-.036-2.96 25.257-.953 47.301-12.236 51.163-26.898a6.649 6.614 0 0 0 4.355-6.189 6.649 6.614 0 0 0-6.65-6.613 6.649 6.614 0 0 0-6.647 6.613 6.649 6.614 0 0 0 3.378 5.74c-3.963 12.019-24.464 21.07-48.967 21.096-24.503-.026-45.006-9.076-48.97-21.094a6.649 6.614 0 0 0 3.378-5.742 6.649 6.614 0 0 0-6.647-6.613m88.378 65.117c-2.034-.082-4.136.998-4.827 2.986a5.4 5.4 0 0 0-.326 1.906c-.1 2.148 1.394 4.252 3.532 4.721 2.479.718 5.511-.697 6.082-3.31.593-2.203-.289-4.89-2.503-5.825a4.9 4.9 0 0 0-1.958-.478"/>
    </clipPath>
  </defs>
  <g style="display:inline;fill:#141718" fill="#141718">
    <path d="M137.609 71.667c5.343 0 9.674-4.331 9.674-9.674s-4.331-9.675-9.674-9.675-9.674 4.332-9.674 9.675 4.331 9.674 9.674 9.674m57.755 0c5.343 0 9.675-4.331 9.675-9.674s-4.332-9.675-9.675-9.675c-5.342 0-9.674 4.332-9.674 9.675s4.332 9.674 9.674 9.674" style="display:inline" transform="matrix(.26322 0 0 .26458 -26.322 0)"/>
    <path clip-rule="evenodd" d="M205.057 16.395h-71.781L100.043 0v151.981s-2.215 26.586 25.256 26.586h77.986s29.686-2.655 29.686-31.459V0ZM137.899 82.82c-12.593 0-22.804-10.208-22.804-22.802s10.211-22.802 22.804-22.802c12.592-.002 22.802 10.206 22.802 22.8s-10.21 22.804-22.802 22.804m32.627 11.22-4.038 8.649-4.04-8.65-4.041-8.644h16.159zm25.129-11.22c-12.594 0-22.802-10.208-22.802-22.802s10.208-22.802 22.802-22.802 22.802 10.208 22.802 22.802-10.208 22.802-22.802 22.802" style="display:inline" clip-path="url(#a)" transform="matrix(.26322 0 0 .26458 -26.322 0)"/>
  </g>
</svg>
